<svg width="30" height="30" viewBox="0 0 30 30" fill="none" xmlns="http://www.w3.org/2000/svg">
<path d="M1.875 8.20215H28.125C28.5131 8.20215 28.8281 7.88715 28.8281 7.49902C28.8281 7.1109 28.5131 6.7959 28.125 6.7959H1.875C1.48687 6.7959 1.17188 7.1109 1.17188 7.49902C1.17188 7.88715 1.48687 8.20215 1.875 8.20215ZM28.125 14.2968H1.875C1.48687 14.2968 1.17188 14.6118 1.17188 15C1.17188 15.3881 1.48687 15.7031 1.875 15.7031H28.125C28.5131 15.7031 28.8281 15.3881 28.8281 15C28.8281 14.6118 28.5131 14.2968 28.125 14.2968ZM28.125 21.7968H1.875C1.48687 21.7968 1.17188 22.1118 1.17188 22.5C1.17188 22.8881 1.48687 23.2031 1.875 23.2031H28.125C28.5131 23.2031 28.8281 22.8881 28.8281 22.5C28.8281 22.1118 28.5131 21.7968 28.125 21.7968Z" fill="#20578C"/>
</svg>
