<svg width="35" height="35" viewBox="0 0 35 35" fill="none" xmlns="http://www.w3.org/2000/svg">
<path d="M4.375 6.70833C4.375 5.89159 4.375 5.48322 4.53394 5.17126C4.67377 4.89686 4.89686 4.67377 5.17126 4.53394C5.48322 4.375 5.89159 4.375 6.70833 4.375H28.2917C29.1085 4.375 29.5168 4.375 29.8288 4.53394C30.1032 4.67377 30.3262 4.89686 30.466 5.17126C30.625 5.48322 30.625 5.89159 30.625 6.70833V9.24184C30.625 9.59853 30.625 9.77687 30.5848 9.94471C30.549 10.0935 30.4901 10.2358 30.41 10.3662C30.3199 10.5134 30.1938 10.6395 29.9416 10.8918L21.1 19.7333C20.8479 19.9854 20.7218 20.1116 20.6316 20.2587C20.5516 20.3893 20.4926 20.5314 20.4569 20.6803C20.4167 20.8482 20.4167 21.0265 20.4167 21.3831V24.7917L14.5833 30.625V21.3831C14.5833 21.0265 14.5833 20.8482 14.543 20.6803C14.5073 20.5314 14.4484 20.3893 14.3684 20.2587C14.2783 20.1116 14.1521 19.9854 13.8999 19.7333L5.05842 10.8918C4.8062 10.6395 4.68008 10.5134 4.5899 10.3662C4.50994 10.2358 4.45102 10.0935 4.41529 9.94471C4.375 9.77687 4.375 9.59853 4.375 9.24184V6.70833Z" stroke="#FFFDFD" stroke-width="4" stroke-linecap="round" stroke-linejoin="round"/>
</svg>
