<svg width="60" height="60" viewBox="0 0 60 60" fill="none" xmlns="http://www.w3.org/2000/svg">
<path d="M9.375 47.5V12.5C9.375 12.0896 9.45583 11.6833 9.61288 11.3041C9.76992 10.925 10.0001 10.5805 10.2903 10.2903C10.5805 10.0001 10.925 9.76992 11.3041 9.61288C11.6833 9.45583 12.0896 9.375 12.5 9.375H47.5C47.9104 9.375 48.3167 9.45583 48.6959 9.61288C49.075 9.76992 49.4195 10.0001 49.7097 10.2903C49.9999 10.5805 50.2301 10.925 50.3871 11.3041C50.5442 11.6833 50.625 12.0896 50.625 12.5V47.5C50.625 47.9104 50.5442 48.3167 50.3871 48.6959C50.2301 49.075 49.9999 49.4195 49.7097 49.7097C49.4195 49.9999 49.075 50.2301 48.6959 50.3871C48.3167 50.5442 47.9104 50.625 47.5 50.625H12.5C12.0896 50.625 11.6833 50.5442 11.3041 50.3871C10.925 50.2301 10.5805 49.9999 10.2903 49.7097C10.0001 49.4195 9.76992 49.075 9.61288 48.6959C9.45583 48.3167 9.375 47.9104 9.375 47.5Z" stroke="black" stroke-width="3.75" stroke-linejoin="round"/>
<path d="M30.4688 27.0312H50.625L27.0312 50.625V30.4688C27.0312 29.5571 27.3934 28.6827 28.0381 28.0381C28.6827 27.3934 29.5571 27.0312 30.4688 27.0312Z" stroke="black" stroke-width="3.75" stroke-linejoin="round"/>
</svg>
