<svg width="60" height="60" viewBox="0 0 60 60" fill="none" xmlns="http://www.w3.org/2000/svg">
<path d="M52.5 20L43.598 24.9455C38.635 27.7027 36.1535 29.0815 33.5255 29.622C31.1995 30.1002 28.8005 30.1002 26.4745 29.622C23.8466 29.0815 21.3651 27.7027 16.402 24.9455L7.5 20M15.5 47.5H44.5C47.3002 47.5 48.7005 47.5 49.77 46.955C50.7108 46.4757 51.4757 45.7108 51.955 44.77C52.5 43.7005 52.5 42.3003 52.5 39.5V20.5C52.5 17.6997 52.5 16.2996 51.955 15.2301C51.4757 14.2892 50.7108 13.5243 49.77 13.045C48.7005 12.5 47.3002 12.5 44.5 12.5H15.5C12.6997 12.5 11.2996 12.5 10.2301 13.045C9.28923 13.5243 8.52432 14.2892 8.04497 15.2301C7.5 16.2996 7.5 17.6997 7.5 20.5V39.5C7.5 42.3003 7.5 43.7005 8.04497 44.77C8.52432 45.7108 9.28923 46.4757 10.2301 46.955C11.2996 47.5 12.6997 47.5 15.5 47.5Z" stroke="#20578C" stroke-width="5" stroke-linecap="round" stroke-linejoin="round"/>
</svg>
