<svg width="45" height="45" viewBox="0 0 45 45" fill="none" xmlns="http://www.w3.org/2000/svg">
<g clip-path="url(#clip0_10_237)">
<path d="M22.5095 0.9375C25.3663 0.909238 28.0168 1.62782 30.4792 3.09961C32.9608 4.58284 34.9017 6.51327 36.3191 8.89453C37.7272 11.2601 38.4373 13.9126 38.4373 16.875C38.4372 18.019 38.1568 19.4052 37.5505 21.0508C36.9383 22.7126 36.1635 24.3945 35.2244 26.0967C34.2801 27.8082 33.2009 29.5533 31.9861 31.3311C30.763 33.1209 29.5707 34.7892 28.4099 36.3369C27.2488 37.885 26.166 39.2501 25.1609 40.4326C24.1464 41.6261 23.334 42.6026 22.7273 43.3604L22.5095 43.5986C22.4388 43.5138 22.3614 43.4256 22.283 43.3291C21.8851 42.8395 21.0832 41.886 19.8845 40.4775C18.6995 39.0851 17.604 37.6945 16.5994 36.3057C15.5808 34.8976 14.3968 33.2493 13.0476 31.3604C11.7194 29.5009 10.6357 27.7407 9.79077 26.0801C8.92964 24.3875 8.14291 22.711 7.4314 21.0508C6.75026 19.4615 6.48305 18.0972 6.5603 16.9375L6.56226 16.9062V16.875C6.56226 13.9761 7.27068 11.3189 8.6853 8.88574C10.102 6.44908 12.0387 4.52631 14.5076 3.10742C16.9771 1.68823 19.6393 0.965918 22.5095 0.9375ZM22.5183 4.6875C19.133 4.6224 16.2276 5.83991 13.8591 8.30566C11.5114 10.7499 10.3123 13.6189 10.3123 16.875C10.3123 20.2415 11.5047 23.1357 13.8718 25.5029C16.239 27.8701 19.1333 29.0624 22.4998 29.0625C25.8662 29.0625 28.7605 27.87 31.1277 25.5029C33.4949 23.1357 34.6872 20.2415 34.6873 16.875C34.6873 13.5082 33.4952 10.6261 31.1238 8.28711C28.7601 5.9558 25.8745 4.75208 22.5183 4.6875Z" fill="black" stroke="#20578C" stroke-width="1.875"/>
</g>
<defs>
<clipPath id="clip0_10_237">
<rect width="45" height="45" fill="white"/>
</clipPath>
</defs>
</svg>
