<svg width="30" height="30" viewBox="0 0 30 30" fill="none" xmlns="http://www.w3.org/2000/svg">
<path d="M13.095 17.3691C13.1828 17.457 13.2322 17.5762 13.2322 17.7005C13.2322 17.8248 13.1828 17.9439 13.095 18.0318L7.81861 23.3088C7.77506 23.3523 7.72336 23.3868 7.66648 23.4103C7.60959 23.4339 7.54862 23.446 7.48706 23.446C7.36272 23.4459 7.2435 23.3965 7.15562 23.3085C7.06774 23.2205 7.01841 23.1013 7.01846 22.9769C7.01852 22.8526 7.06796 22.7334 7.15592 22.6455L12.4323 17.3691C12.5202 17.2813 12.6394 17.232 12.7636 17.232C12.8879 17.232 13.0071 17.2813 13.095 17.3691ZM25.3258 22.9941C25.302 23.0716 25.2586 23.1415 25.1997 23.1972C25.1408 23.2528 25.0685 23.2922 24.9898 23.3116C24.9111 23.3309 24.8288 23.3296 24.7508 23.3076C24.6728 23.2857 24.6018 23.2439 24.5448 23.1863L22.954 21.5955L22.0897 22.4604L23.6811 24.0523C23.7382 24.1096 23.7795 24.1806 23.8011 24.2585C23.8226 24.3364 23.8237 24.4185 23.8041 24.497C23.7845 24.5754 23.745 24.6474 23.6894 24.7061C23.6337 24.7647 23.5639 24.808 23.4866 24.8316C23.2001 24.9184 22.9023 24.962 22.603 24.9611C21.6866 24.9611 20.7415 24.5686 20.0301 23.8572C19.3499 23.177 18.9549 22.2887 18.9274 21.3928L15.8583 18.323C15.8202 18.302 15.7853 18.2758 15.7545 18.2451L15.4282 17.9188C15.305 18.3264 15.0825 18.697 14.7807 18.9975L9.06959 24.7086C8.6161 25.1674 8.00501 25.4363 7.36041 25.4609H7.27252C6.9732 25.4639 6.67627 25.4074 6.39903 25.2945C6.12179 25.1816 5.86978 25.0147 5.65768 24.8035C4.7442 23.89 4.78756 22.3596 5.75494 21.3922L11.4661 15.6811C11.7665 15.3796 12.1369 15.1571 12.5442 15.0336L12.219 14.7084C12.1883 14.6776 12.1621 14.6427 12.1411 14.6047L9.06197 11.525C8.16666 11.498 7.27896 11.1031 6.60103 10.4229C5.65709 9.47774 5.27447 8.12188 5.62603 6.96582C5.64966 6.88842 5.69292 6.81845 5.7516 6.76273C5.81029 6.70701 5.8824 6.66743 5.96092 6.64784C6.03944 6.62825 6.1217 6.62933 6.19968 6.65096C6.27766 6.6726 6.34871 6.71405 6.40592 6.77129L7.99732 8.36211L8.86217 7.49668L7.26842 5.90879C7.21118 5.85158 7.16972 5.78053 7.14809 5.70255C7.12646 5.62457 7.12538 5.54232 7.14497 5.46379C7.16455 5.38527 7.20413 5.31316 7.25986 5.25448C7.31558 5.19579 7.38555 5.15253 7.46295 5.12891C8.61783 4.77735 9.97486 5.15879 10.92 6.10332C11.6008 6.7836 11.9958 7.67188 12.0233 8.56836L16.1249 12.6699L22.4419 6.34883C22.4743 6.31557 22.5116 6.2875 22.5526 6.26563L24.7381 5.09375C24.8267 5.04666 24.928 5.02921 25.0272 5.04396C25.1264 5.05872 25.2182 5.10489 25.2892 5.1757C25.3602 5.24651 25.4067 5.33823 25.4217 5.43738C25.4367 5.53654 25.4196 5.63789 25.3727 5.72656L24.1962 7.91211C24.1745 7.95241 24.1471 7.98933 24.1147 8.02168L17.7954 14.341L21.8881 18.4338C22.7835 18.4607 23.6706 18.8557 24.3491 19.5359C25.2954 20.4811 25.6774 21.8375 25.3258 22.9918V22.9941ZM16.7946 16.5418L13.9235 13.6707L13.2268 14.3668L16.0979 17.2379L16.7946 16.5418ZM15.8477 14.2684L16.1952 14.6158L23.4022 7.40879L23.8065 6.65762L23.0547 7.06133L15.8477 14.2684ZM9.58756 10.727L12.5635 13.7029L13.5913 12.6752C13.6792 12.5874 13.7983 12.538 13.9226 12.538C14.0469 12.538 14.1661 12.5874 14.254 12.6752L15.1844 13.6057L15.4592 13.3309L11.2223 9.09395C11.1769 9.04852 11.1413 8.99424 11.1177 8.93446C11.0941 8.87469 11.083 8.81071 11.0852 8.74649C11.1092 8.03867 10.8075 7.3168 10.2567 6.7666C9.82223 6.32405 9.25329 6.03803 8.63892 5.95332L9.85416 7.16914C9.942 7.25704 9.99134 7.37622 9.99134 7.50049C9.99134 7.62476 9.942 7.74394 9.85416 7.83184L8.32603 9.35996C8.23814 9.4478 8.11895 9.49715 7.99469 9.49715C7.87042 9.49715 7.75124 9.4478 7.66334 9.35996L6.44869 8.14531C6.53364 8.75877 6.8187 9.32703 7.25963 9.76192C7.81041 10.3121 8.5317 10.6139 9.23834 10.5898H9.25475C9.31652 10.5896 9.37772 10.6017 9.43484 10.6252C9.49195 10.6487 9.54385 10.6833 9.58756 10.727ZM14.592 17.0826L13.3803 15.8715C13.15 15.8548 12.9189 15.8884 12.7029 15.9699C12.4868 16.0515 12.2911 16.179 12.1294 16.3438L6.41764 22.0566C5.81588 22.6584 5.7731 23.5941 6.32096 24.1426C6.453 24.2725 6.61064 24.3735 6.78385 24.4392C6.95705 24.5048 7.14203 24.5337 7.32701 24.524C7.73444 24.5075 8.12032 24.3366 8.40631 24.0459L14.118 18.3359C14.4087 18.0499 14.5796 17.6641 14.5962 17.2566C14.5984 17.1986 14.597 17.1405 14.592 17.0826ZM24.5008 21.8152C24.4158 21.2016 24.1301 20.6334 23.6881 20.1992C23.1374 19.6484 22.4161 19.3473 21.71 19.3713C21.6458 19.3735 21.5818 19.3624 21.522 19.3388C21.4623 19.3153 21.408 19.2796 21.3626 19.2342L17.1327 15.0043L16.8579 15.2791L17.7889 16.2107C17.8768 16.2986 17.9261 16.4178 17.9261 16.5421C17.9261 16.6664 17.8768 16.7855 17.7889 16.8734L16.7618 17.9006L19.7272 20.8672C19.7726 20.9125 19.8082 20.9667 19.8317 21.0264C19.8553 21.0861 19.8664 21.1499 19.8643 21.2141C19.8409 21.9219 20.1426 22.6438 20.6928 23.1945C21.1275 23.6367 21.6964 23.9225 22.3106 24.0072L21.0954 22.792C21.0518 22.7485 21.0172 22.6968 20.9936 22.6399C20.97 22.583 20.9579 22.522 20.9579 22.4604C20.9579 22.3988 20.97 22.3378 20.9936 22.2808C21.0172 22.2239 21.0518 22.1722 21.0954 22.1287L22.6235 20.6006C22.7114 20.5127 22.8306 20.4634 22.9548 20.4634C23.0791 20.4634 23.1983 20.5127 23.2862 20.6006L24.5008 21.8152Z" fill="#20578C"/>
</svg>
