<svg width="60" height="60" viewBox="0 0 60 60" fill="none" xmlns="http://www.w3.org/2000/svg">
<path d="M29.9743 6.87548C26.2358 6.84829 22.429 8.29423 19.9646 11.162C17.7786 13.4761 16.9533 16.7561 17.0633 19.8708C17.054 21.4705 17.0733 23.0699 17.079 24.6692C15.5474 24.2889 13.9936 23.2242 12.3718 23.7514C10.9899 24.1617 10.4133 25.9664 11.248 27.1236C12.1468 28.2989 13.5436 28.9695 14.7105 29.8455C15.2846 30.3142 16.0583 30.6489 16.4855 31.2514C16.4852 32.6952 15.7277 34.0317 15.0099 35.247C13.2608 37.9977 10.528 40.1005 7.60208 41.5533C6.8552 41.8767 6.1677 42.8483 6.82926 43.5842C8.03614 44.7161 9.74395 45.0773 11.2652 45.6111C11.9049 45.8111 12.8521 46.0299 12.7921 46.8874C12.8968 47.8008 13.4811 48.783 14.5083 48.7867C16.9686 49.0711 19.5986 48.9499 21.8036 50.2683C23.9652 51.5202 26.1902 52.9161 28.7583 53.0683C31.3171 53.308 33.953 52.7908 36.1465 51.4261C37.7808 50.5249 39.374 49.402 41.289 49.2195C42.8999 48.8427 44.6333 49.1724 46.1905 48.572C47.1883 48.1449 47.0536 46.9333 47.473 46.132C48.2643 45.5861 49.2761 45.5233 50.1574 45.1627C51.3096 44.7033 52.7621 44.3505 53.3661 43.1586C53.7249 42.2092 52.6436 41.6905 51.9746 41.3211C48.4183 39.4855 45.2149 36.6583 43.8118 32.8239C43.6568 32.2189 43.0996 31.3133 43.838 30.8692C45.3858 29.5642 47.4046 28.8145 48.6861 27.2083C49.6558 25.9945 48.9802 23.9114 47.3921 23.6702C45.8521 23.4264 44.4155 24.2617 42.9696 24.6474C42.8433 21.9817 43.1265 19.2624 42.7271 16.6017C41.968 12.2867 38.504 8.74016 34.348 7.50048C32.9352 7.06266 31.4524 6.86391 29.9743 6.87548Z" stroke="#20578C" stroke-width="3.75" stroke-linejoin="round"/>
</svg>
